PathFileType	4	(X/Y/Z)	Run_200 02
DataRate	CameraRate	NumFrames	NumMarkers	Units	OrigDataRate	OrigDataStartFrame	OrigNumFrames
120	120	5	41	mm	120	250	125
Frame#	Time	LASI			RASI			LPSI			RPSI			RTH1			RTH3			LTH1			LTH2			LTH3			RTB1			RTB2			RTB3			LTB1			LTB2			LTB3			RCAL			RTOE			RMT5			LCAL			LTOE			LMT5			LACR			RACR			CLAV			C7			RUA1			RUA2			RUA3			RLEL			RMEL			LUA1			LUA2			LUA3			LLEL			LMEL			RFAsuperior			RFAradius			RFAulna			LFAsuperior			LFAradius			LFAulna			
		X1	Y1	Z1	X2	Y2	Z2	X3	Y3	Z3	X4	Y4	Z4	X5	Y5	Z5	X6	Y6	Z6	X7	Y7	Z7	X8	Y8	Z8	X9	Y9	Z9	X10	Y10	Z10	X11	Y11	Z11	X12	Y12	Z12	X13	Y13	Z13	X14	Y14	Z14	X15	Y15	Z15	X16	Y16	Z16	X17	Y17	Z17	X18	Y18	Z18	X19	Y19	Z19	X20	Y20	Z20	X21	Y21	Z21	X22	Y22	Z22	X23	Y23	Z23	X24	Y24	Z24	X25	Y25	Z25	X26	Y26	Z26	X27	Y27	Z27	X28	Y28	Z28	X29	Y29	Z29	X30	Y30	Z30	X31	Y31	Z31	X32	Y32	Z32	X33	Y33	Z33	X34	Y34	Z34	X35	Y35	Z35	X36	Y36	Z36	X37	Y37	Z37	X38	Y38	Z38	X39	Y39	Z39	X40	Y40	Z40	X41	Y41	Z41	

250	2.85	895.5683289999999	992.637463	-400.673203	904.50128	960.363036	-167.028402	734.418261	1007.921123	-323.891773	733.393092	997.257154	-226.136423	860.584624	796.9658020000001	-109.04562	878.384516	544.856402	-128.399011	890.815516	807.250617	-455.522051	970.404813	718.475478	-425.294802	937.486328	593.017723	-393.17267	791.433686	373.818493	-186.793497	719.7287669999999	382.215539	-119.337646	668.93756	338.77338	-179.537782	984.720096	382.426477	-291.688388	943.134458	310.742431	-367.260067	936.195499	219.606848	-285.951167	487.94657	384.824875	-183.275351	523.484194	176.89641	-195.7894	495.64927	197.900835	-105.183409	803.1619920000001	107.047965	-289.120561	1005.062458	76.60354100000001	-250.36869	996.487738	62.756377	-342.292598	879.719513	1431.81767	-479.149815	882.9336070000001	1425.425924	-83.638082	949.9892589999999	1419.423093	-262.469797	828.426938	1485.341111	-295.536579	817.332894	1295.109019	-38.119813	742.882795	1298.244091	-49.789066	771.501265	1220.845904	-13.660123	732.485846	1162.589992	7.288605	701.097891	1145.773442	-67.539451	796.705764	1312.701334	-534.170088	720.5034879999999	1286.453177	-526.245334	770.786095	1226.651049	-547.1707	706.684787	1170.335907	-568.459726	667.592706	1178.079107	-490.654928	828.630058	1082.947256	-20.16884	904.977457	1019.209244	-91.995682	872.816775	970.135067	-51.59519	808.531206	1096.233442	-535.856873	900.703132	1081.552737	-449.138922	885.980964	1025.644661	-486.259353	
251	2.858333	893.363783	991.239223	-399.540281	902.5747229999999	956.233801	-166.270847	731.888288	1004.715326	-321.463329	731.1261940000001	992.055035	-224.068699	862.632299	793.051456	-109.349132	888.664838	542.6705470000001	-127.047283	887.383781	804.346794	-456.067091	967.973915	717.548319	-426.599142	934.621483	589.819779	-395.157415	804.249568	373.717273	-185.582459	732.686693	381.377393	-118.991209	681.758687	338.300708	-179.805202	978.015573	378.630812	-293.5809	932.5364970000001	308.216222	-369.286698	924.471911	217.217193	-287.693849	500.154135	385.337063	-184.041684	536.386751	177.37801	-193.151944	509.838285	199.907653	-102.687885	786.95021	107.467744	-289.604239	988.8510690000001	75.918711	-250.887516	980.046036	61.940702	-342.836674	882.328307	1424.808396	-480.150201	880.053059	1419.981194	-83.641623	950.1157920000001	1414.492532	-261.838108	829.394193	1481.193887	-296.537414	812.3410270000001	1290.260033	-39.497752	738.054849	1292.589311	-53.40382	765.2767689999999	1215.905449	-15.34549	725.6084090000001	1157.327298	4.49265	697.765173	1139.794821	-71.31983200000001	802.955968	1302.77164	-534.636747	726.41273	1274.631357	-530.401781	778.7160280000001	1216.316515	-548.272724	716.3628670000001	1158.43813	-571.021038	674.4461229999999	1165.341779	-494.883936	819.436093	1073.278445	-19.021165	894.501809	1005.21067	-87.342933	859.4155490000001	958.44997	-47.098979	818.553314	1086.086421	-536.454918	908.9468409999999	1073.087779	-448.310111	895.525097	1017.039235	-485.646983	
252	2.866667	891.417641	990.164518	-398.590643	901.491174	953.841497	-166.18983	729.810353	1002.472786	-319.845491	730.540191	988.551736	-223.156962	863.563208	790.00446	-109.463153	898.821745	541.254099	-126.387699	883.445657	801.7087	-456.632596	964.753795	715.243374	-428.265349	928.9528759999999	586.572081	-396.524834	817.422128	374.071038	-184.89742	745.936048	381.046378	-118.840269	695.191498	337.903771	-180.67967	969.882833	374.165655	-295.60919	921.41095	304.67469	-371.054683	911.713767	214.263476	-289.60592	512.301797	384.70238	-184.765673	550.954997	177.105801	-191.229425	525.741608	200.733236	-100.71657	770.593947	107.876209	-290.051838	972.499516	75.35750899999999	-251.410433	963.486432	61.305465	-343.404854	884.79867	1418.914387	-480.556086	877.416818	1415.847144	-83.783303	949.980352	1410.583212	-261.139301	829.836908	1477.584891	-297.292038	807.546632	1286.847451	-40.855967	733.746364	1288.730355	-57.725764	759.203589	1212.802156	-16.904341	718.8228329999999	1153.807404	1.763132	693.386408	1135.950025	-74.760304	808.912135	1294.844435	-534.792135	732.616786	1264.408725	-533.651288	787.115987	1207.867424	-548.8732670000001	726.685082	1148.004224	-573.034365	681.89097	1153.86401	-498.617391	809.869113	1065.106995	-17.93226	883.082377	992.452934	-82.66109400000001	844.9947089999999	948.227786	-42.700785	829.458511	1077.708489	-536.662355	917.508879	1065.781615	-446.98491	905.740152	1009.879874	-484.902313	
253	2.875	889.701519	988.984335	-397.975497	900.798439	952.675964	-166.555653	728.150572	1001.095368	-319.253464	730.96763	986.5026	-223.369744	863.304668	787.4340110000001	-109.436132	908.740155	540.658812	-126.472567	879.485369	799.729359	-457.282935	960.688672	711.562353	-429.998063	921.4451350000001	583.504094	-397.416713	830.773561	374.844571	-184.524339	759.333928	381.133425	-118.913734	708.930484	337.461421	-181.454611	960.379131	369.616677	-297.275564	910.289541	300.79552	-372.299105	898.330696	211.316919	-291.356735	524.380547	382.841078	-185.389827	567.03021	175.967445	-189.970116	543.033645	200.325426	-99.22612700000001	754.096515	108.287358	-290.372954	955.979709	75.039502	-251.923992	946.8081550000001	60.891302	-343.951892	887.2698360000001	1414.437129	-480.565479	874.887982	1413.060069	-83.965571	949.678909	1407.683204	-260.390527	829.935412	1474.794748	-297.978325	802.882442	1284.782291	-42.073859	729.93051	1286.754675	-62.445462	753.198501	1211.499971	-18.353369	712.004321	1152.295576	-0.759454	687.443885	1134.626049	-77.62347800000001	814.282731	1289.064884	-534.962118	738.910978	1256.134433	-535.795833	795.603283	1201.347877	-549.05873	737.170659	1139.489296	-574.468917	689.923049	1144.208075	-501.590568	799.878284	1058.843086	-16.959857	870.782356	981.561109	-78.326566	829.753646	939.976283	-38.564924	840.816084	1071.459451	-536.503407	926.229111	1060.192441	-445.093995	916.488303	1004.6572	-483.939888	
254	2.883333	888.273176	987.66727	-397.692218	899.932417	952.287783	-166.86641	726.879191	1000.560969	-319.504504	731.067349	985.737856	-224.153035	862.036835	785.443384	-109.37301	918.377757	541.179894	-127.018686	875.775269	798.372911	-457.958224	955.649798	706.994149	-431.537688	913.219566	580.717683	-398.133155	844.135611	375.977575	-184.264097	772.746523	381.544053	-119.197812	722.816414	336.890513	-181.764884	949.835051	365.552	-298.529147	899.021165	297.320209	-373.112613	884.86629	208.760063	-292.821158	536.401712	379.6744	-185.901017	584.412927	173.917253	-189.347053	561.383655	198.65058	-98.23195	737.505033	108.706009	-290.590031	939.333197	74.918324	-252.487852	930.049909	60.597171	-344.493221	889.8538160000001	1411.619338	-480.370944	872.3294979999999	1411.577194	-84.148675	949.298605	1405.814163	-259.598682	829.974009	1473.152061	-298.727672	798.2229589999999	1284.029762	-43.094945	726.369646	1286.60507	-67.06997	747.099611	1211.899462	-19.695035	704.954347	1152.836369	-2.976207	680.1575779999999	1135.715105	-79.878362	819.0897189999999	1285.300197	-535.326518	745.080702	1249.933786	-536.92641	803.781688	1196.692333	-549.005767	747.316183	1133.120579	-575.386021	698.314852	1136.745845	-503.706252	789.405178	1054.792287	-16.065449	857.813525	973.158277	-74.509781	814.037792	934.169427	-34.877799	852.038857	1067.443677	-535.968903	934.915554	1056.908313	-442.649701	927.527237	1001.784462	-482.644632	
